<svg width="53" height="54" viewBox="0 0 53 54" fill="none" xmlns="http://www.w3.org/2000/svg">
    <path d="M51.5804 50.1883H49.2144V2.9654C49.2144 2.63897 49.141 2.31574 48.9983 2.01416C48.8555 1.71259 48.6464 1.43858 48.3827 1.20778C48.119 0.976979 47.8059 0.793914 47.4614 0.669038C47.1169 0.544161 46.7476 0.479919 46.3747 0.479981L6.62474 0.479981C5.87174 0.479981 5.14959 0.741836 4.61714 1.20794C4.08469 1.67405 3.78556 2.30622 3.78556 2.9654V50.1883H1.41959C1.23299 50.1883 1.04821 50.2205 0.875844 50.2831C0.703473 50.3456 0.546885 50.4373 0.415036 50.5529C0.283187 50.6685 0.178666 50.8057 0.10745 50.9567C0.0362344 51.1077 -0.00027796 51.2695 1.59319e-06 51.4328V53.504H53V51.4328C53.0003 51.2695 52.9638 51.1077 52.8926 50.9567C52.8213 50.8057 52.7168 50.6685 52.585 50.5529C52.4531 50.4373 52.2965 50.3456 52.1242 50.2831C51.9518 50.2205 51.767 50.1883 51.5804 50.1883ZM15.1428 8.35093C15.1428 8.18773 15.1795 8.02614 15.2508 7.87536C15.3222 7.72459 15.4268 7.5876 15.5586 7.4722C15.6904 7.3568 15.8469 7.26527 16.0191 7.20281C16.1913 7.14036 16.3759 7.10822 16.5624 7.10822H21.2943C21.4807 7.10822 21.6653 7.14036 21.8376 7.20281C22.0098 7.26527 22.1663 7.3568 22.2981 7.4722C22.4299 7.5876 22.5345 7.72459 22.6058 7.87536C22.6772 8.02614 22.7139 8.18773 22.7139 8.35093V12.4933C22.7139 12.6565 22.6772 12.8181 22.6058 12.9688C22.5345 13.1196 22.4299 13.2566 22.2981 13.372C22.1663 13.4874 22.0098 13.5789 21.8376 13.6414C21.6653 13.7038 21.4807 13.736 21.2943 13.736H16.5624C16.3759 13.736 16.1913 13.7038 16.0191 13.6414C15.8469 13.5789 15.6904 13.4874 15.5586 13.372C15.4268 13.2566 15.3222 13.1196 15.2508 12.9688C15.1795 12.8181 15.1428 12.6565 15.1428 12.4933V8.35093ZM15.1428 18.2931C15.1428 18.1299 15.1795 17.9683 15.2508 17.8175C15.3222 17.6667 15.4268 17.5297 15.5586 17.4143C15.6904 17.2989 15.8469 17.2074 16.0191 17.1449C16.1913 17.0825 16.3759 17.0503 16.5624 17.0503H21.2943C21.4807 17.0503 21.6653 17.0825 21.8376 17.1449C22.0098 17.2074 22.1663 17.2989 22.2981 17.4143C22.4299 17.5297 22.5345 17.6667 22.6058 17.8175C22.6772 17.9683 22.7139 18.1299 22.7139 18.2931V22.4354C22.7139 22.5986 22.6772 22.7602 22.6058 22.911C22.5345 23.0617 22.4299 23.1987 22.2981 23.3141C22.1663 23.4295 22.0098 23.5211 21.8376 23.5835C21.6653 23.646 21.4807 23.6781 21.2943 23.6781H16.5624C16.3759 23.6781 16.1913 23.646 16.0191 23.5835C15.8469 23.5211 15.6904 23.4295 15.5586 23.3141C15.4268 23.1987 15.3222 23.0617 15.2508 22.911C15.1795 22.7602 15.1428 22.5986 15.1428 22.4354V18.2931ZM21.2943 33.6188H16.5624C16.3759 33.6188 16.1913 33.5867 16.0191 33.5243C15.8469 33.4618 15.6904 33.3703 15.5586 33.2549C15.4268 33.1395 15.3222 33.0025 15.2508 32.8517C15.1795 32.7009 15.1428 32.5393 15.1428 32.3761V28.2338C15.1428 28.0706 15.1795 27.909 15.2508 27.7582C15.3222 27.6074 15.4268 27.4704 15.5586 27.3551C15.6904 27.2397 15.8469 27.1481 16.0191 27.0857C16.1913 27.0232 16.3759 26.9911 16.5624 26.9911H21.2943C21.4807 26.9911 21.6653 27.0232 21.8376 27.0857C22.0098 27.1481 22.1663 27.2397 22.2981 27.3551C22.4299 27.4704 22.5345 27.6074 22.6058 27.7582C22.6772 27.909 22.7139 28.0706 22.7139 28.2338V32.3761C22.7139 32.5393 22.6772 32.7009 22.6058 32.8517C22.5345 33.0025 22.4299 33.1395 22.2981 33.2549C22.1663 33.3703 22.0098 33.4618 21.8376 33.5243C21.6653 33.5867 21.4807 33.6188 21.2943 33.6188ZM30.2856 50.1883H22.7144V41.4907C22.7144 41.3275 22.7512 41.1659 22.8225 41.0152C22.8938 40.8644 22.9984 40.7274 23.1302 40.612C23.262 40.4966 23.4185 40.4051 23.5908 40.3426C23.763 40.2802 23.9476 40.248 24.134 40.248H28.866C29.2425 40.248 29.6036 40.3789 29.8698 40.612C30.136 40.845 30.2856 41.1611 30.2856 41.4907V50.1883ZM37.8556 32.3775C37.8556 32.5407 37.8189 32.7023 37.7476 32.8531C37.6762 33.0039 37.5717 33.1409 37.4398 33.2563C37.308 33.3717 37.1515 33.4632 36.9793 33.5256C36.8071 33.5881 36.6225 33.6202 36.436 33.6202H31.7041C31.5177 33.6202 31.3331 33.5881 31.1608 33.5256C30.9886 33.4632 30.8321 33.3717 30.7003 33.2563C30.5685 33.1409 30.4639 33.0039 30.3926 32.8531C30.3212 32.7023 30.2845 32.5407 30.2845 32.3775V28.2352C30.2845 27.9056 30.4341 27.5895 30.7003 27.3565C30.9665 27.1234 31.3276 26.9925 31.7041 26.9925H36.436C36.8125 26.9925 37.1736 27.1234 37.4398 27.3565C37.7061 27.5895 37.8556 27.9056 37.8556 28.2352V32.3775ZM37.8556 22.4354C37.8556 22.765 37.7061 23.0811 37.4398 23.3141C37.1736 23.5472 36.8125 23.6781 36.436 23.6781H31.7041C31.3276 23.6781 30.9665 23.5472 30.7003 23.3141C30.4341 23.0811 30.2845 22.765 30.2845 22.4354V18.2931C30.2845 17.9635 30.4341 17.6474 30.7003 17.4143C30.9665 17.1813 31.3276 17.0503 31.7041 17.0503H36.436C36.8125 17.0503 37.1736 17.1813 37.4398 17.4143C37.7061 17.6474 37.8556 17.9635 37.8556 18.2931V22.4354ZM37.8556 12.4933C37.8556 12.8229 37.7061 13.139 37.4398 13.372C37.1736 13.6051 36.8125 13.736 36.436 13.736H31.7041C31.3276 13.736 30.9665 13.6051 30.7003 13.372C30.4341 13.139 30.2845 12.8229 30.2845 12.4933V8.35093C30.2845 8.02134 30.4341 7.70525 30.7003 7.4722C30.9665 7.23915 31.3276 7.10822 31.7041 7.10822H36.436C36.8125 7.10822 37.1736 7.23915 37.4398 7.4722C37.7061 7.70525 37.8556 8.02134 37.8556 8.35093V12.4933Z" fill="#5CFF5C"/>
</svg>
