<svg width="61" height="54" viewBox="0 0 61 54" fill="none" xmlns="http://www.w3.org/2000/svg">
    <path d="M33.5498 23.3336H32.0248V14.1666C32.0248 14.057 32.005 13.9486 31.9666 13.8474C31.9282 13.7462 31.8719 13.6543 31.801 13.5769C31.73 13.4995 31.6458 13.4382 31.5531 13.3964C31.4605 13.3546 31.3612 13.3332 31.2609 13.3335H29.9681C29.5168 13.3334 29.0756 13.4794 28.7002 13.7531L27.2382 14.8179C27.1549 14.8785 27.0833 14.9565 27.0275 15.0474C26.9718 15.1383 26.933 15.2403 26.9133 15.3476C26.8937 15.4549 26.8936 15.5654 26.913 15.6727C26.9325 15.78 26.9711 15.8821 27.0266 15.9732L27.8729 17.3588C27.9284 17.4499 27.9998 17.5281 28.0829 17.5891C28.1661 17.65 28.2595 17.6924 28.3576 17.7139C28.4558 17.7353 28.5569 17.7355 28.6551 17.7142C28.7533 17.693 28.8467 17.6508 28.93 17.59L28.9748 17.5576V23.3336H27.4498C27.3497 23.3336 27.2505 23.3551 27.1581 23.397C27.0656 23.4389 26.9815 23.5002 26.9107 23.5776C26.84 23.655 26.7838 23.7468 26.7455 23.8479C26.7072 23.949 26.6875 24.0573 26.6875 24.1667V25.8334C26.6875 25.9428 26.7072 26.0511 26.7455 26.1522C26.7838 26.2533 26.84 26.3451 26.9107 26.4225C26.9815 26.4999 27.0656 26.5612 27.1581 26.6031C27.2505 26.645 27.3497 26.6665 27.4498 26.6665H33.5514C33.7532 26.6659 33.9466 26.5779 34.0892 26.4217C34.2317 26.2656 34.3117 26.054 34.3117 25.8334V24.1667C34.3117 23.9458 34.2315 23.734 34.0886 23.5778C33.9457 23.4215 33.7519 23.3337 33.5498 23.3336ZM57.95 0H3.05081C2.24169 0 1.4657 0.351284 0.893562 0.976575C0.321424 1.60187 0 2.44994 0 3.33423L0 36.6666C0 37.5509 0.321424 38.399 0.893562 39.0243C1.4657 39.6496 2.24169 40.0009 3.05081 40.0009H57.95C58.7591 40.0009 59.5351 39.6496 60.1072 39.0243C60.6794 38.399 61.0008 37.5509 61.0008 36.6666V3.33423C61.0008 2.44994 60.6794 1.60187 60.1072 0.976575C59.5351 0.351284 58.7591 0 57.95 0ZM4.57503 34.9999V28.3315C5.37631 28.3315 6.16974 28.504 6.91002 28.8391C7.6503 29.1742 8.32294 29.6654 8.88953 30.2846C9.45612 30.9038 9.90556 31.639 10.2122 32.448C10.5188 33.2571 10.6767 34.1242 10.6767 34.9999H4.57503ZM4.57503 11.6664V4.99789H10.6767C10.6767 5.87364 10.5189 6.74083 10.2123 7.54993C9.9057 8.35904 9.45626 9.09422 8.88967 9.71349C8.32308 10.3328 7.65042 10.824 6.91011 11.1591C6.1698 11.4943 5.37634 11.6668 4.57503 11.6668V11.6664ZM30.4998 31.6666C25.4461 31.6666 21.3497 26.4426 21.3497 19.9998C21.3497 13.5569 25.4465 8.33342 30.4998 8.33342C35.5531 8.33342 39.6499 13.5565 39.6499 20.0002C39.6499 26.4439 35.5515 31.6666 30.4998 31.6666ZM56.4246 35.0008H50.323C50.323 33.2322 50.9658 31.5361 52.1101 30.2855C53.2544 29.0349 54.8063 28.3323 56.4246 28.3323V35.0008ZM56.4246 11.6672C54.8063 11.6672 53.2544 10.9647 52.1101 9.71408C50.9658 8.46349 50.323 6.76734 50.323 4.99875H56.4246V11.6672Z" fill="#5CFF5C"/>
</svg>
